<svg width="97" height="20" viewBox="0 0 97 20" fill="none" xmlns="http://www.w3.org/2000/svg">
<path d="M1.31919 7.24005L1.31916 7.24008C1.25562 7.30108 1.23753 7.35421 1.23233 7.39286C1.22632 7.43764 1.23481 7.48917 1.26064 7.5375C1.28647 7.58585 1.32283 7.61845 1.35825 7.63549C1.37477 7.64343 1.39731 7.65122 1.42842 7.65303C1.4528 7.63486 1.48175 7.61284 1.5155 7.58667C1.65591 7.47776 1.85148 7.3186 2.09022 7.11861C2.56618 6.71992 3.19542 6.17434 3.86165 5.57905C3.86165 5.57904 3.86166 5.57904 3.86166 5.57904L6.30049 3.39977L6.76761 2.98236L7.26154 3.36768L7.53921 3.58429L7.53924 3.58431C7.64504 3.66686 8.15191 4.12391 8.83485 4.74515C9.53805 5.38482 10.4691 6.23674 11.4586 7.14669L15.0538 10.4531L15.2955 10.6754L15.2961 11.0038L15.299 12.6806L15.302 14.3574L15.3033 15.1087H14.552H14.2568H13.9616H13.2075L13.2116 14.3546L13.2158 13.5754L13.2158 13.5753L13.2182 13.121L9.89408 9.97187C8.05267 8.22742 7.13443 7.3658 6.6068 6.95473C6.47446 6.85162 6.38712 6.79379 6.33364 6.76192C6.31548 6.77607 6.29522 6.79202 6.27281 6.80983C6.14431 6.912 5.96679 7.05838 5.7519 7.23907C5.32333 7.59943 4.76098 8.08374 4.17576 8.59521C2.99646 9.62588 1.75894 10.7366 1.33206 11.1643C1.33203 11.1643 1.332 11.1644 1.33198 11.1644L1.23133 11.2653V13.3254V15.3762L1.28836 15.4309L1.23133 15.4903L1.28836 15.4309C1.33528 15.476 1.37022 15.5066 1.39507 15.5271C1.49081 15.4798 1.64895 15.3772 1.90963 15.1674C2.18798 14.9433 2.54088 14.6323 3.00991 14.2091C3.91288 13.3944 4.80957 12.5862 5.00245 12.4132C5.00249 12.4131 5.00253 12.4131 5.00258 12.413L5.35057 12.1008L5.85912 11.6444L6.36075 12.1084L8.30092 13.9029L8.30096 13.9029C9.2522 14.7828 9.70729 15.1993 9.97512 15.4047C10.0456 15.4587 10.0875 15.4856 10.1084 15.4979C10.1148 15.498 10.1227 15.4981 10.1323 15.4981C10.2423 15.4981 10.2909 15.463 10.3095 15.4448C10.3275 15.4271 10.3606 15.3832 10.3614 15.2811L10.362 15.2002L8.30996 13.2713C7.68346 12.6824 7.08414 12.1322 6.62413 11.7208C6.39367 11.5148 6.20122 11.3463 6.05917 11.2261C5.9877 11.1657 5.93318 11.121 5.89511 11.0912C5.88777 11.0854 5.88167 11.0807 5.87672 11.077C5.87237 11.0748 5.86823 11.0728 5.86427 11.0708C5.84855 11.08 5.82963 11.0916 5.80726 11.1062C5.4673 11.3282 4.87588 11.8639 3.56766 13.0665L3.5676 13.0665L2.94839 13.6356L1.6136 14.8623L1.69158 13.0511L1.72041 12.3817L1.72041 12.3815L1.74914 11.7121L1.76267 11.3968L1.99753 11.186L3.90642 9.47303M1.31919 7.24005L3.90642 9.47303M1.31919 7.24005C1.71924 6.85593 3.06477 5.65002 4.34819 4.51487C4.98661 3.95021 5.60404 3.40802 6.07267 3.00129C6.30731 2.79766 6.50276 2.62962 6.64423 2.51019C6.71035 2.45437 6.76214 2.41132 6.79946 2.38103C6.83817 2.40351 6.89402 2.43881 6.97023 2.49351C7.45947 2.84463 8.32852 3.64015 10.1572 5.3246L10.1572 5.3246C11.8348 6.86988 13.7779 8.65118 14.4753 9.28292L14.4753 9.28294C14.6088 9.4039 14.7265 9.50928 14.8314 9.60314C15.0734 9.81977 15.2469 9.97502 15.3876 10.1188C15.5692 10.3044 15.6324 10.4095 15.6708 10.5143C15.7167 10.6399 15.7507 10.8313 15.7642 11.2333C15.7738 11.5187 15.7726 11.8642 15.7712 12.3186C15.7706 12.5065 15.7699 12.7131 15.7699 12.9417C15.7699 13.1217 15.7702 13.2901 15.7705 13.448C15.7716 14.0726 15.7725 14.5322 15.7528 14.8884C15.7407 15.1075 15.7221 15.2561 15.6994 15.3586C15.6899 15.4015 15.681 15.4305 15.6743 15.4488C15.6466 15.4568 15.5976 15.4675 15.5165 15.4767C15.2996 15.5014 15.018 15.5004 14.5889 15.4989C14.4753 15.4985 14.3514 15.4981 14.2156 15.4981H12.8646L12.754 15.4033L12.7539 15.4032L12.6881 15.3467L12.6746 14.618L12.6548 13.5529L12.649 13.2424L12.4254 13.0268L10.5757 11.2437L10.5757 11.2436C9.55687 10.2615 8.29074 9.07214 7.75961 8.5992C7.7596 8.59919 7.75959 8.59918 7.75957 8.59917M1.31919 7.24005L7.75957 8.59917M3.90642 9.47303L5.8154 7.75995L6.31441 7.31215L6.81511 7.75806L7.75957 8.59917M3.90642 9.47303L7.75957 8.59917M6.84703 2.34357C6.82656 2.34778 6.79717 2.35176 6.76453 2.34926C6.76358 2.34919 6.76264 2.34911 6.76172 2.34903L6.4212 1.72693C7.00184 1.40952 7.05605 1.44835 10.6653 4.77296C12.343 6.31826 14.284 8.09766 14.9788 8.7271C15.7198 9.3984 16.1066 9.70274 16.3077 10.1009C16.5594 10.5994 16.5199 11.2449 16.5199 12.9417C16.5199 14.8734 16.5587 15.6796 16.1803 16.0145C15.8755 16.2842 15.3001 16.2481 14.2156 16.2481H12.5872L6.84703 2.34357ZM6.76126 2.34899C6.74037 2.34713 6.72848 2.34355 6.72836 2.3439C6.72824 2.34427 6.74095 2.34893 6.76965 2.36433L6.78095 2.38502C6.78108 2.38496 6.7812 2.38489 6.78132 2.38482L6.76126 2.34899ZM6.77029 2.36468C6.77721 2.3684 6.78505 2.37274 6.79384 2.37779L6.77029 2.36468ZM15.7048 15.4372C15.7052 15.4373 15.7028 15.4389 15.6963 15.4415C15.7012 15.4383 15.7045 15.437 15.7048 15.4372Z" fill="#333333" stroke="#333333" stroke-width="1.5"/>
<path d="M25.0042 0.199219L23.4144 6.85211H26.8009C29.0658 6.85211 29.7845 5.42578 29.7845 4.44829C29.7845 3.45086 28.9787 2.62299 27.5196 2.62299H25.9734L26.2565 1.44601H30.0132L30.3072 0.199219H25.0042ZM27.3127 3.86978C27.8245 3.86978 28.1729 4.17898 28.1729 4.58793C28.1729 5.15647 27.6938 5.60532 26.9098 5.60532H25.2547L25.6793 3.86978H27.3127Z" fill="#333333"/>
<path d="M33.1385 1.91481C31.3419 1.91481 30.3619 3.52068 30.3619 4.97693C30.3619 6.25365 31.1676 6.9718 32.3654 6.9718C32.997 6.9718 33.4979 6.73242 33.9443 6.25365L33.7919 6.85211H35.1857L36.3508 2.0345H34.957L34.8154 2.67286C34.467 2.19409 33.8354 1.91481 33.1385 1.91481ZM33.3563 3.04191C33.9117 3.04191 34.3581 3.28129 34.5868 3.60047L34.1839 5.27616C33.9008 5.60532 33.4652 5.8447 32.9752 5.8447C32.311 5.8447 31.8101 5.40583 31.8101 4.7176C31.8101 3.82988 32.4525 3.04191 33.3563 3.04191Z" fill="#333333"/>
<path d="M37.9399 6.85211L38.4299 4.89714H40.5968L40.1177 6.85211H41.5006L42.6984 2.0345H41.3155L40.8799 3.78001H38.7021L39.1377 2.0345H37.7548L36.557 6.85211H37.9399Z" fill="#333333"/>
<path d="M48.0024 6.85211L46.4888 4.21888L49.1022 2.0345H47.3382L44.899 4.09919L45.4108 2.0345H44.0279L42.8628 6.85211H44.2457L44.5397 5.61529L45.3564 4.96696L46.3255 6.85211H48.0024Z" fill="#333333"/>
<path d="M27.8426 17.2639L25.6104 13.733L29.2473 10.611H27.2546L24.0859 13.4637L24.7719 10.611H23.2257L21.625 17.2639H23.1712L23.6721 15.2192L24.4235 14.5409L26.0241 17.2639H27.8426Z" fill="#333333"/>
<path d="M31.7271 17.3836C33.5129 17.3836 34.4929 15.7678 34.4929 14.3215C34.4929 13.0448 33.6763 12.3266 32.5003 12.3266C31.8687 12.3266 31.3569 12.566 30.9105 13.0448L31.0629 12.4463H29.68L28.0685 19.0992H29.4513L30.0502 16.6256C30.3987 17.1043 31.0085 17.3836 31.7271 17.3836ZM31.4985 16.2565C30.9431 16.2565 30.4967 16.0271 30.268 15.7079L30.6709 14.0322C30.9649 13.7031 31.3896 13.4537 31.8796 13.4537C32.5438 13.4537 33.0447 13.8926 33.0447 14.5808C33.0447 15.4686 32.4131 16.2565 31.4985 16.2565Z" fill="#333333"/>
<path d="M37.7924 17.3836C38.4457 17.3836 39.1426 17.2041 39.6544 16.8849L39.2188 16.0171C38.8922 16.2466 38.3477 16.3762 37.8904 16.3762C36.9213 16.3762 36.453 15.7877 36.453 15.3788C36.453 15.3489 36.453 15.279 36.453 15.2591H40.3622C40.4166 15.0995 40.4711 14.7604 40.4711 14.4811C40.4711 13.1346 39.4475 12.3266 38.1082 12.3266C36.355 12.3266 35.0701 13.6532 35.0701 15.2192C35.0701 16.5657 36.1372 17.3836 37.7924 17.3836ZM36.5946 14.4013C36.7144 13.8727 37.2806 13.334 38.021 13.334C38.8595 13.334 39.2297 13.8228 39.2297 14.3016C39.2297 14.3215 39.2297 14.3813 39.2297 14.4013H36.5946Z" fill="#333333"/>
<path d="M40.1088 18.4908H41.4808L41.7748 17.2639H45.0089L44.7149 18.4908H46.1086L46.664 16.1568H46.0869L46.9798 12.4463H42.7222L41.8293 14.7803C41.3828 15.9473 41.0671 16.1269 40.6424 16.2067L40.1088 18.4908ZM43.6586 13.5535H45.3137L44.704 16.1568H42.2648C42.6568 15.8775 42.9726 15.4486 43.1795 14.8601L43.6586 13.5535Z" fill="#333333"/>
<path d="M48.6013 17.2639L51.5522 14.2417L50.8335 17.2639H52.2164L53.3706 12.4463H51.9768L49.1022 15.3588L49.8099 12.4463H48.427L47.2728 17.2639H48.6013Z" fill="#333333"/>
<path d="M55.9522 17.2639L56.8342 13.5535H58.3042L58.5764 12.4463H54.2426L53.9704 13.5535H55.4404L54.5584 17.2639H55.9522Z" fill="#333333"/>
<path d="M60.3785 18.4908H61.9139L62.2079 17.2639H66.7377L66.4437 18.4908H67.9899L68.5888 16.0171H67.9246L69.2312 10.611H64.0699L62.8285 14.0123C62.1752 15.7678 61.6852 16.0271 60.9339 16.1269L60.3785 18.4908ZM65.1697 11.8578H67.3801L66.3783 16.0171H63.0028C63.5472 15.6281 64.0154 15.0097 64.3421 14.112L65.1697 11.8578Z" fill="#333333"/>
<path d="M70.5506 17.2639L71.0406 15.309H73.2075L72.7284 17.2639H74.1113L75.3091 12.4463H73.9262L73.4906 14.1918H71.3128L71.7484 12.4463H70.3655L69.1677 17.2639H70.5506Z" fill="#333333"/>
<path d="M77.5315 11.9277C77.9562 11.9277 78.468 11.6185 78.468 11.0699C78.468 10.7108 78.1522 10.4215 77.7166 10.4215C77.3028 10.4215 76.7911 10.7307 76.7911 11.2793C76.7911 11.6384 77.1068 11.9277 77.5315 11.9277ZM76.8564 17.2639L78.0215 12.4463H76.6386L75.4735 17.2639H76.8564Z" fill="#333333"/>
<path d="M83.1712 17.2639L84.369 12.4463H79.4254L78.2276 17.2639H79.6105L80.5361 13.5535H82.703L81.7883 17.2639H83.1712Z" fill="#333333"/>
<path d="M87.7457 17.3836C89.5315 17.3836 90.5115 15.7678 90.5115 14.3215C90.5115 13.0448 89.6948 12.3266 88.5188 12.3266C87.8873 12.3266 87.3755 12.566 86.929 13.0448L87.0815 12.4463H85.6986L84.087 19.0992H85.4699L86.0688 16.6256C86.4172 17.1043 87.027 17.3836 87.7457 17.3836ZM87.517 16.2565C86.9617 16.2565 86.5152 16.0271 86.2866 15.7079L86.6895 14.0322C86.9835 13.7031 87.4081 13.4537 87.8981 13.4537C88.5624 13.4537 89.0633 13.8926 89.0633 14.5808C89.0633 15.4686 88.4317 16.2565 87.517 16.2565Z" fill="#333333"/>
<path d="M93.6803 17.3836C95.4661 17.3836 96.7292 16.0171 96.7292 14.521C96.7292 13.2642 95.7927 12.3266 94.1158 12.3266C92.3409 12.3266 91.0778 13.6931 91.0778 15.1992C91.0778 16.456 92.0034 17.3836 93.6803 17.3836ZM93.7347 16.2565C92.9616 16.2565 92.5042 15.8276 92.5042 15.1294C92.5042 14.2716 93.1358 13.4537 94.0723 13.4537C94.8345 13.4537 95.2918 13.8826 95.2918 14.5808C95.2918 15.4486 94.6603 16.2565 93.7347 16.2565Z" fill="#333333"/>
</svg>
