<svg width="87" height="21" viewBox="0 0 87 21" fill="none" xmlns="http://www.w3.org/2000/svg">
<path d="M7.04297 10.6004C7.04297 8.28071 9.00162 6.40015 11.4182 6.40015C13.8347 6.40015 15.793 8.28071 15.793 10.6004C15.793 12.9196 13.8347 14.8001 11.4182 14.8001C9.00162 14.8001 7.04297 12.9196 7.04297 10.6004Z" fill="#333333"/>
<path d="M13.854 5.09338C13.854 3.7176 15.016 2.60208 16.4491 2.60208C17.8827 2.60208 19.0452 3.7176 19.0452 5.09338C19.0452 6.46961 17.8827 7.58512 16.4491 7.58512C15.016 7.58512 13.854 6.46961 13.854 5.09338ZM0.480469 10.6C0.480469 5.19115 5.04456 0.806166 10.6767 0.799561V4.34119C7.08141 4.34736 4.1693 7.14693 4.1693 10.6C4.1693 14.0567 7.08831 16.8585 10.6886 16.8585C14.2678 16.8585 17.2083 14.0831 17.2083 10.5763L20.8971 10.5784C20.8971 16.0124 16.3271 20.3996 10.6886 20.3996C5.05054 20.3996 0.480469 16.0124 0.480469 10.6" fill="#333333"/>
<path d="M44.9699 13.7674C45.6934 13.8507 46.4795 13.6201 47.0129 13.1951C47.6234 12.6976 48.1721 11.671 48.1721 10.5565C48.1721 9.32545 47.3491 9.17891 47.0434 9.17891C46.6014 9.17891 46.2661 9.39873 45.9461 9.60389L44.9699 13.7674ZM46.2052 8.15306C46.6014 7.88928 47.2568 7.44886 48.2482 7.44886C49.7723 7.44886 50.7943 8.54798 50.7943 10.4099C50.7943 11.4658 50.4133 12.7115 49.6199 13.6355C48.1111 15.4088 46.2052 15.3941 44.5888 15.3941L43.7209 18.8981L43.615 18.9714C43.2637 18.9714 42.9284 18.956 42.5778 18.956C42.0597 18.956 41.6024 18.9861 41.0385 19.0007L40.9615 18.8981C40.9615 18.8981 41.4989 17.344 42.1671 14.6729C42.869 11.87 43.5252 8.58654 43.5829 7.91782L43.6896 7.81523L46.2966 7.40567L46.3888 7.50748L46.2052 8.15306ZM40.6887 15.2329L40.5668 15.3501C40.0783 15.4388 39.5055 15.5113 39.1943 15.5113C38.0432 15.5113 36.3539 15.344 37.0694 12.5518C37.5515 10.6637 37.8989 9.25218 37.8989 9.25218L36.8312 9.28149L36.7397 9.16425L37.1825 7.68334L37.2892 7.61083H38.2951L38.7371 5.71882L38.8438 5.617C39.9877 5.36787 40.2916 5.29383 41.3441 5.00073L41.4355 5.08866L40.7649 7.64014L42.3195 7.61083L42.3811 7.71265C42.1669 8.32815 42.1059 8.49013 41.9078 9.17891L41.7859 9.28149L40.3837 9.25218C40.3837 9.25218 40.0989 10.3899 39.7003 11.9733C39.2695 13.6864 39.4957 13.5985 39.9273 13.762C40.2963 13.9024 40.78 13.7234 41.0543 13.6355L41.1458 13.7088L40.6886 15.2329H40.6887ZM32.1675 8.98839C31.4504 8.98839 30.6394 9.33934 30.1709 11.4743C29.6503 13.8499 30.6883 14.0019 31.1921 14.0019C31.6493 14.0019 32.6231 13.762 33.1068 11.4874C33.4461 9.89699 33.1774 8.98839 32.1675 8.98839ZM35.7275 11.4874C35.0721 15.0825 32.7458 15.5406 30.7766 15.5406C28.8329 15.5406 27.0409 14.2533 27.5479 11.4697C27.9441 9.29383 29.2878 7.28072 32.5541 7.43421C34.8323 7.54142 36.1726 9.04315 35.7275 11.4874Z" fill="#333333"/>
<path d="M82.9162 11.3322L85.3449 15.9615L85.2509 16.087L83.5116 16.1341L83.3863 16.0391C82.9796 14.9369 81.2074 11.4734 81.2074 11.4734C80.7529 13.4665 80.6589 13.9371 80.2664 16.0078L80.1575 16.1027L78.574 16.1341L78.5113 16.0391C78.5113 16.0391 79.3477 12.5599 80.0709 9.33911C80.4098 7.83315 80.936 5.44872 81.1447 4.00386L81.2535 3.90974L82.9624 3.62737L83.0572 3.73718C82.7413 4.82124 81.2535 11.2538 81.2535 11.2538C82.3776 10.2679 84.2481 8.30377 84.4988 8.03709L84.6712 7.94296H86.474L86.5208 8.08415C86.0755 8.43587 85.2508 9.18224 84.9531 9.44892L82.916 11.3322L82.9162 11.3322ZM76.9263 16.0119L76.8017 16.106L75.2027 16.153L75.14 16.044C75.37 14.9872 76.335 11.4477 76.3474 10.3471C76.3573 9.40592 75.7676 9.09218 75.0303 9.09218C74.0588 9.09218 73.4155 9.57848 72.9454 9.92442C72.3656 12.5598 72.1776 13.3913 71.6762 16.0118L71.5657 16.1059L69.9682 16.153L69.889 16.044C69.889 16.044 70.3649 14.1227 70.7945 12.1255C71.1311 10.5618 71.4073 9.27379 71.5343 8.19799L71.6448 8.08818C72.3813 7.99405 72.5537 7.96268 73.3066 7.80581L73.385 7.91479L73.1656 8.71483C73.7767 8.3078 74.5602 7.75792 75.8608 7.75792C76.3778 7.75792 78.071 7.89993 78.071 9.79806C78.071 10.9333 77.0797 14.9038 76.9263 16.0118M68.0053 9.12359C67.7695 9.12359 67.5353 9.10793 67.2994 9.10793C66.7823 9.10793 65.7638 9.13931 64.8384 9.76761C63.1932 10.8963 63.1618 12.9207 63.1618 13C63.1618 13.7529 63.5692 14.9609 64.9951 14.9609C65.419 14.9609 66.1184 14.8618 66.8763 14.1914L68.0053 9.12362V9.12359ZM69.1649 11.1167C68.6165 13.5333 68.5068 14.1294 68.1934 15.997L68.0829 16.106L66.6099 16.1373L66.5315 16.0275L66.6413 15.4009C66.3749 15.6197 65.6855 16.2001 64.3527 16.2001C62.7536 16.2001 61.453 15.0706 61.453 13.1089C61.453 11.8696 62.0484 10.5197 62.7074 9.73538C64.1647 8.02467 66.1868 7.93054 67.6293 7.93054L69.7917 7.94706L69.8701 8.07173L69.1649 11.1167ZM54.1625 14.8824C55.0491 14.9237 56.3571 14.8981 57.3756 14.2078C58.5352 13.407 59.0844 12.0108 59.0844 11.006C59.0844 9.57851 58.2218 9.02947 57.2189 9.02947C56.419 9.02947 55.8549 9.37458 55.3534 9.68832C55.3534 9.68832 54.2599 14.4976 54.1625 14.8824ZM52.25 16.0275C52.3548 15.552 53.0302 12.7638 53.7214 9.62805C54.3118 6.93896 54.7234 5.26127 54.8677 4.00796L54.9931 3.89732L56.7019 3.6001L56.7802 3.7099L56.3414 5.45199L55.6198 8.46473C56.2788 8.10393 56.9048 7.75799 57.9084 7.75799C59.4597 7.75799 60.7611 8.80902 60.7611 10.7872C60.7611 11.5873 60.5104 13.0932 59.4597 14.302C58.0494 15.9186 56.3101 16.0275 54.2879 16.106H53.4261L52.3284 16.1216L52.25 16.0275V16.0275Z" fill="#333333"/>
</svg>
