<svg width="94" height="15" viewBox="0 0 94 15" fill="none" xmlns="http://www.w3.org/2000/svg">
<path fill-rule="evenodd" clip-rule="evenodd" d="M2.59491 0.276663C-0.579535 1.04702 -0.776268 5.28956 2.31248 6.36687C2.8461 6.55299 3.87436 6.55299 4.40798 6.36687C5.81084 5.87756 6.59866 4.79776 6.59999 3.36238C6.60131 1.92553 5.80554 0.835938 4.40798 0.361133C3.96285 0.209943 3.04593 0.16719 2.59491 0.276663ZM10.4672 0.302748C8.03133 0.914617 7.21228 3.88511 9.00684 5.59891C11.0747 7.5737 14.58 6.16699 14.58 3.36238C14.58 1.29638 12.5433 -0.218812 10.4672 0.302748ZM17.4301 7.1998V13.9565H18.8297H20.2294V7.1998V0.443108H18.8297H17.4301V7.1998ZM28.6762 3.19395V5.94475L28.1728 5.45992C27.3894 4.70543 26.7942 4.47749 25.6068 4.47749C24.6468 4.47749 24.063 4.64243 23.2936 5.13108C20.6836 6.7887 20.4868 11.2079 22.9338 13.2113C23.7785 13.903 24.5231 14.1633 25.656 14.1633C27.0139 14.1633 27.8602 13.7841 28.6393 12.8265L28.7733 12.6617L28.7739 13.3091L28.7744 13.9565H30.0758H31.3772V7.1998V0.443108H30.0267H28.6762V3.19395ZM54.3605 7.20037V13.9636L57.3439 13.9429C60.6436 13.9201 60.7041 13.9153 61.606 13.6063C63.4455 12.9759 64.4796 11.4275 64.2807 9.60113C64.1487 8.38874 63.3855 7.39087 62.299 7.01005L62.0118 6.90933L62.3786 6.69015C63.3645 6.10103 63.8462 5.24789 63.8462 4.09102C63.8462 2.23714 62.7758 1.0126 60.7693 0.571085C60.3544 0.47974 60.1446 0.472677 57.3439 0.455491L54.3605 0.437175V7.20037ZM84.6611 7.1998V13.958L85.9993 13.9455L87.3375 13.933L87.3503 11.6967L87.3631 9.46049L88.7692 11.7085L90.1753 13.9565H91.8187C93.2986 13.9565 93.4592 13.9491 93.4323 13.8819C93.4159 13.8408 92.6734 12.6975 91.7824 11.3411L90.1623 8.87499L91.7482 6.81319L93.334 4.75138L91.8158 4.7147C90.7713 4.68947 90.2782 4.69347 90.2354 4.72756C90.2011 4.75482 89.5461 5.6573 88.7798 6.733L87.3867 8.68886L87.3621 4.57778L87.3375 0.46665L85.9993 0.454126L84.6611 0.441601V7.1998ZM59.54 2.79957C60.5459 2.93894 61.0148 3.42476 61.0148 4.32762C61.0148 5.02692 60.7874 5.40987 60.2037 5.69346C59.7426 5.91754 59.4856 5.95205 58.2789 5.95205H57.1597V4.35116V2.75027L58.1788 2.75121C58.7392 2.75173 59.3518 2.77348 59.54 2.79957ZM36.3127 4.49839C33.7384 4.80671 32.1848 6.64189 32.1924 9.36571C32.1966 10.8688 32.5577 11.8503 33.4604 12.8125C35.1801 14.6452 38.959 14.6598 40.7642 12.8407C41.187 12.4146 41.7726 11.4306 41.665 11.3268C41.6476 11.3099 41.0596 11.2534 40.3582 11.2011L39.0831 11.106L38.9337 11.3293C38.2447 12.3587 36.5548 12.4919 35.6623 11.587C35.3164 11.2364 34.9709 10.5169 34.963 10.1308C34.9626 10.1114 36.329 10.0955 37.9994 10.0955C39.67 10.0955 41.239 10.0818 41.4862 10.0649L41.9358 10.0344L41.9348 9.44104C41.9294 6.15951 39.5931 4.10556 36.3127 4.49839ZM46.4647 4.49246C45.2441 4.61564 44.1747 5.11591 43.5367 5.86216C43.1733 6.28725 42.8197 7.14029 42.8197 7.59202V7.74283L44.1083 7.73031L45.3968 7.71773L45.4304 7.49281C45.5499 6.69119 46.41 6.24496 47.5697 6.38297C48.542 6.49875 49.0075 7.01457 49.0075 7.97628V8.38248L47.6362 8.46337C45.0112 8.61819 44.0845 8.84928 43.2817 9.5491C42.469 10.2577 42.2653 11.6018 42.8079 12.677C43.7306 14.5058 47.1624 14.7289 48.843 13.0693L49.1549 12.7613V13.3589V13.9565H50.462H51.7691L51.7322 13.827C51.7119 13.7558 51.6798 12.1826 51.661 10.331C51.6233 6.62066 51.6313 6.71525 51.3042 6.12688C50.6482 4.94678 48.6499 4.27192 46.4647 4.49246ZM68.6023 4.49896C67.0922 4.6477 65.8437 5.37083 65.3132 6.40392C65.1472 6.72735 64.9681 7.33955 64.9681 7.58401V7.74128H66.2415H67.5149L67.5697 7.4882C67.7304 6.746 68.3222 6.36917 69.3256 6.37012C70.5654 6.37134 71.156 6.88871 71.156 7.97369V8.38366L69.7267 8.46577C67.6226 8.58659 67.0046 8.69404 66.1604 9.08579C65.1054 9.57533 64.676 10.2417 64.6742 11.3922C64.6716 13.1229 65.9304 14.1685 68.0129 14.1657C69.3039 14.1639 70.1114 13.8799 70.8736 13.1596L71.3033 12.7535V13.355V13.9565H72.61H73.9167L73.8886 13.849C73.7885 13.4667 73.7595 12.5975 73.7592 9.96835C73.7589 8.01362 73.7407 6.95665 73.7045 6.79011C73.3547 5.18183 71.2526 4.23787 68.6023 4.49896ZM79.7271 4.49458C78.8378 4.62835 78.2158 4.98149 77.6327 5.68376L77.445 5.90981L77.4312 5.30708L77.4174 4.7043H76.1406H74.8637L74.8512 9.33039L74.8387 13.9565H76.1894H77.5402L77.5419 11.2138C77.544 7.8096 77.5777 7.58251 78.1672 7.00105C78.8671 6.31051 80.2544 6.48496 80.6947 7.31888C80.9183 7.74236 80.9287 7.90772 80.9287 11.0201V13.9565H82.2793H83.6298V10.6578C83.6298 6.66798 83.6117 6.51161 83.055 5.70405C82.4331 4.80181 81.043 4.29664 79.7271 4.49458ZM37.9703 6.62244C38.5973 6.89973 39.2347 7.77744 39.2347 8.36327C39.2347 8.38375 38.274 8.40047 37.0997 8.40047H34.9647L34.9958 8.24744C35.1756 7.36224 35.7136 6.76313 36.5337 6.53477C36.9109 6.42977 37.6345 6.47389 37.9703 6.62244ZM27.0549 6.78432C29.3123 7.38296 29.3153 11.3657 27.0589 11.9983C25.3678 12.4725 23.9101 11.1174 24.0253 9.17822C24.1319 7.38447 25.4351 6.35477 27.0549 6.78432ZM2.59491 7.95151C-0.579535 8.72187 -0.776268 12.9644 2.31248 14.0417C2.8461 14.2278 3.87436 14.2278 4.40798 14.0417C5.80947 13.5529 6.59935 12.4699 6.59935 11.0372C6.59935 9.60203 5.80161 8.50947 4.40798 8.03598C3.96285 7.88479 3.04593 7.84204 2.59491 7.95151ZM10.4645 7.97548C8.00452 8.61193 7.21317 11.5528 9.03238 13.2974C11.0686 15.2501 14.58 13.8195 14.58 11.0372C14.58 8.97768 12.5186 7.44408 10.4645 7.97548ZM59.9835 8.27621C60.3791 8.37768 60.7148 8.56658 60.9553 8.82301C61.5316 9.43761 61.5055 10.4962 60.8997 11.077C60.4422 11.5156 60.0306 11.6022 58.4042 11.6022H57.1597V9.90719V8.21213L58.4489 8.21269C59.3684 8.21307 59.8084 8.23129 59.9835 8.27621ZM49.0444 10.5091C49.0133 11.1573 48.9552 11.3206 48.6414 11.6422C47.8147 12.4896 45.8207 12.5353 45.3378 11.718C45.0584 11.245 45.258 10.6295 45.7732 10.3754C46.0742 10.2269 47.8341 9.99161 48.8797 9.96006L49.0711 9.95427L49.0444 10.5091ZM71.156 10.5198C71.156 10.9952 71.1396 11.1187 71.0534 11.2945C70.6978 12.0198 69.4407 12.4641 68.3656 12.2444C67.6978 12.1079 67.4135 11.8393 67.3826 11.3152C67.3481 10.7311 67.6107 10.4247 68.2953 10.2499C68.5359 10.1885 70.5099 9.97645 70.9963 9.95973L71.156 9.95427V10.5198Z" fill="#333333"/>
</svg>
