<svg width="53" height="22" viewBox="0 0 53 22" fill="none" xmlns="http://www.w3.org/2000/svg">
<path fill-rule="evenodd" clip-rule="evenodd" d="M39.5299 0.984647C38.4097 1.38995 37.5594 2.21609 36.9843 3.45813L36.6481 4.18389L36.6145 7.01344C36.594 8.73872 36.6257 10.06 36.6957 10.3993C37.0517 12.1232 38.2919 13.4361 40.0009 13.8984C40.7677 14.1059 48.0906 14.1418 49.1285 13.9433C51.1483 13.5568 52.6541 11.8074 52.6651 9.83473L52.6698 8.98503L50.1763 8.95511L47.6828 8.92508L47.3486 9.42942C46.8305 10.2113 46.6478 10.2691 44.6895 10.2691C42.0381 10.2691 41.7544 9.98926 41.7574 7.37643C41.7604 4.87034 42.0597 4.53783 44.3625 4.48212C46.5365 4.42953 46.992 4.59042 47.4347 5.56684L47.6176 5.97036L50.1837 6.00028L52.75 6.03032L52.7048 5.04932C52.6245 3.30438 51.7844 1.97346 50.2763 1.20237L49.5564 0.834248L44.8227 0.808232C40.4905 0.78445 40.0416 0.799412 39.5299 0.984647ZM0.297635 1.03378C0.268495 1.11271 0.257957 2.02973 0.274194 3.07147L0.303764 4.96547L2.69497 4.9955L5.08628 5.02554L5.11434 9.40586L5.14251 13.7862H8.85222H12.5619L12.6157 9.43165L12.6695 5.07712L14.706 5.0213L16.7425 4.96547L17.8472 3.06734C18.4549 2.02337 18.9538 1.10646 18.956 1.02964C18.9618 0.821184 0.374732 0.825204 0.297635 1.03378ZM21.2991 1.36461C19.9258 2.90354 18.742 5.43006 18.4185 7.51276C18.0921 9.61365 18.6101 12.6277 19.4728 13.6466C19.6467 13.8519 24.5519 13.9598 24.5508 13.7583C24.5505 13.7122 24.405 13.4484 24.2273 13.1721C23.8961 12.6569 23.2609 11.0815 23.2609 10.7751C23.2609 10.6269 23.5621 10.604 25.5161 10.604H27.7712L27.8011 12.1951L27.8309 13.7862L31.2644 13.8157C33.9398 13.8387 34.7172 13.814 34.7844 13.704C34.9332 13.4606 34.8949 1.17982 34.7449 1.02406C34.6474 0.92279 33.0399 0.890075 28.1692 0.890075H21.7225L21.2991 1.36461ZM27.7771 5.97036V6.91942H25.6266C24.4437 6.91942 23.476 6.89754 23.476 6.87085C23.476 6.70449 23.7479 6.14253 24.0793 5.62412L24.4646 5.0213H26.1209H27.7771V5.97036ZM27.7771 8.37093C27.7771 8.44195 26.9147 8.48259 25.4052 8.48259C23.8513 8.48259 23.0561 8.44407 23.0996 8.37093C23.1406 8.30216 24.0506 8.25928 25.4716 8.25928C26.9369 8.25928 27.7771 8.29992 27.7771 8.37093ZM0.321936 15.7027C0.282366 15.7437 0.25 16.9748 0.25 18.4385V21.0996H26.4887H52.7274L52.6986 18.3919L52.6698 15.6843L26.5318 15.6562C12.1559 15.6407 0.361399 15.6616 0.321936 15.7027ZM13.9812 17.021C14.3466 17.1298 14.1754 17.4207 13.7927 17.3412C13.029 17.1826 12.7232 17.5504 12.7232 18.6273C12.7232 19.5 12.9717 19.7932 13.6668 19.7407C14.3043 19.6927 14.3994 19.9266 13.8094 20.0917C12.1764 20.5482 11.4528 17.5826 13.0559 17.0035C13.4134 16.8744 13.4939 16.8759 13.9812 17.021ZM23.7169 17.0965C24.2664 17.3954 24.4661 18.8126 24.0607 19.5373C23.5822 20.3927 22.3788 20.3287 21.9439 19.4247C21.2394 17.9605 22.4303 16.3967 23.7169 17.0965ZM5.08875 17.1291C5.08875 17.2342 4.94929 17.3019 4.68552 17.3245L4.28229 17.3591L4.25208 18.7269C4.2239 20.0024 4.20767 20.0947 4.01014 20.0947C3.81078 20.0947 3.79842 20.0129 3.79842 18.699V17.3033H3.42207C3.15927 17.3033 3.04572 17.2528 3.04572 17.1358C3.04572 16.9987 3.23088 16.9683 4.06724 16.9683C4.88455 16.9683 5.08875 17.0005 5.08875 17.1291ZM8.95211 17.722C9.07115 18.1365 9.28814 18.8399 9.43416 19.2852L9.69965 20.0947H9.44556C9.24986 20.0947 9.16255 20.0037 9.06556 19.6984C8.88061 19.1166 7.90039 19.1412 7.73802 19.7318C7.66318 20.0041 7.57748 20.0947 7.39447 20.0947C7.15307 20.0947 7.15576 20.0784 7.64952 18.5315C8.12888 17.0301 8.16017 16.9683 8.44211 16.9683C8.71136 16.9683 8.7534 17.0305 8.95211 17.722ZM17.4544 17.5859C17.4544 18.5707 18.0919 18.5635 18.4075 17.5753C18.5555 17.1117 18.6305 17.0186 18.8792 16.9889C19.1869 16.952 19.291 17.1523 19.0202 17.2603C18.9351 17.2943 18.8329 17.4811 18.7932 17.6756C18.7534 17.87 18.6542 18.1077 18.5729 18.2037C18.4464 18.3531 18.456 18.4413 18.6386 18.8135C18.7562 19.0528 18.8523 19.3368 18.8523 19.4444C18.8523 19.5521 18.9542 19.6968 19.0789 19.7661C19.358 19.9213 19.2027 20.1305 18.8488 20.0762C18.5802 20.0349 18.5195 19.9379 18.3019 19.2014C18.1697 18.7544 18.1149 18.6951 17.8039 18.664L17.4544 18.629V19.3619C17.4544 20.0202 17.4326 20.0947 17.2394 20.0947C17.0345 20.0947 17.0243 20.0202 17.0243 18.5315C17.0243 17.0428 17.0345 16.9683 17.2394 16.9683C17.4285 16.9683 17.4544 17.0428 17.4544 17.5859ZM28.1999 17.8895C28.5685 19.3571 28.5594 19.3543 28.8971 18.0986C29.1902 17.009 29.2121 16.9683 29.5034 16.9683C29.8714 16.9683 29.8899 17.027 29.9815 18.4757C30.0204 19.0898 30.0778 19.7052 30.1091 19.8434C30.1537 20.04 30.1192 20.0947 29.9508 20.0947C29.691 20.0947 29.6054 19.8926 29.6041 19.276C29.6037 19.0201 29.5717 18.5388 29.5334 18.2064L29.4635 17.6022L29.1214 18.8205C28.6346 20.5539 28.4545 20.5612 28.0324 18.8642C27.6982 17.5207 27.6027 17.5328 27.5733 18.9223C27.554 19.8331 27.4741 20.0947 27.215 20.0947C27.0325 20.0947 27.0094 20.0406 27.0601 19.7318C27.0929 19.5322 27.1504 18.9167 27.1881 18.364C27.2785 17.0321 27.3003 16.9683 27.6651 16.9683C27.9549 16.9683 27.979 17.01 28.1999 17.8895ZM34.7664 17.1358C34.7664 17.2661 34.6231 17.3033 34.1212 17.3033H33.4761V17.7355V18.1677L34.0049 18.2406C34.739 18.3417 35.0304 18.6109 35.0304 19.188C35.0304 19.8651 34.8165 20.0262 33.8506 20.0769L33.046 20.1191V18.5437V16.9683H33.9062C34.5991 16.9683 34.7664 17.0009 34.7664 17.1358ZM39.5689 18.4757C40.1105 20.2069 40.0958 20.0947 39.782 20.0947C39.5884 20.0947 39.5053 20.0091 39.429 19.7318C39.2716 19.1592 38.2634 19.1118 38.1248 19.6703C38.0412 20.007 37.5621 20.2992 37.5621 20.0135C37.5621 19.9346 38.2822 17.6385 38.4758 17.1004C38.5065 17.0148 38.651 16.9681 38.8217 16.9888C39.0962 17.0219 39.1433 17.1156 39.5689 18.4757ZM43.1536 17.5824V18.1965H43.6912H44.2289V17.5824C44.2289 17.0428 44.2549 16.9683 44.4439 16.9683C44.6488 16.9683 44.659 17.0428 44.659 18.5315C44.659 20.0202 44.6488 20.0947 44.4439 20.0947C44.2509 20.0947 44.2289 20.0202 44.2289 19.3689V18.6432H43.6912H43.1536V19.3689C43.1536 20.0687 43.1439 20.0947 42.8848 20.0947H42.6159V18.5315V16.9683H42.8848C43.139 16.9683 43.1536 17.0018 43.1536 17.5824ZM48.0999 17.5859C48.0999 18.2661 48.2085 18.3871 48.6593 18.2092C48.862 18.1291 48.9532 17.99 49.0101 17.6742C49.1064 17.1387 49.2403 16.9683 49.5646 16.9683C49.8448 16.9683 49.9118 17.1622 49.6656 17.2603C49.5805 17.2943 49.4804 17.4661 49.4431 17.6424C49.4058 17.8186 49.2823 18.0856 49.1687 18.2355C48.9978 18.4611 48.9888 18.5191 49.1166 18.57C49.2018 18.604 49.3261 18.8478 49.3929 19.112C49.4598 19.3761 49.6192 19.6771 49.7473 19.7807C49.9548 19.9486 49.9605 19.977 49.799 20.0414C49.3526 20.2193 49.1763 20.047 48.9395 19.2014C48.8137 18.7524 48.7617 18.6953 48.4493 18.664L48.0999 18.629V19.3619C48.0999 20.0202 48.078 20.0947 47.8848 20.0947C47.68 20.0947 47.6697 20.0202 47.6697 18.5315C47.6697 17.0428 47.68 16.9683 47.8848 16.9683C48.0739 16.9683 48.0999 17.0428 48.0999 17.5859ZM22.4606 17.5515C22.0707 18.1294 22.3215 19.6674 22.8176 19.7411C23.6351 19.8625 24.0784 18.8635 23.6843 17.7873C23.4807 17.2313 22.7691 17.0941 22.4606 17.5515ZM8.22179 18.0147C8.15662 18.2831 8.07318 18.5845 8.03619 18.6846C7.98114 18.8336 8.04533 18.8665 8.39286 18.8665H8.81663L8.64856 18.1965C8.44824 17.398 8.37845 17.3683 8.22179 18.0147ZM38.5938 18.0489C38.3483 18.7969 38.3658 18.8665 38.7987 18.8665C39.2353 18.8665 39.2238 18.9073 39.0061 18.13C38.8015 17.399 38.8067 17.4 38.5938 18.0489ZM33.4761 19.1951C33.4761 19.7432 33.4851 19.7597 33.7867 19.7597C34.6907 19.7597 34.8262 18.7321 33.931 18.6647L33.4761 18.6303V19.1951Z" fill="#333333"/>
</svg>
