<svg width="89" height="13" viewBox="0 0 89 13" fill="none" xmlns="http://www.w3.org/2000/svg">
<path fill-rule="evenodd" clip-rule="evenodd" d="M14.1167 12.3901V6.27362C14.1167 4.53854 13.1423 3.71483 11.5059 3.71483C10.1453 3.71483 8.96869 4.486 8.45381 5.25707C8.12284 4.29316 7.29549 3.71483 5.9901 3.71483C4.62947 3.71483 3.45284 4.521 3.08505 5.02923V3.92522H0.75V12.3901H3.08505V6.69431C3.43443 6.22108 4.1147 5.69529 4.92363 5.69529C5.87974 5.69529 6.24743 6.25608 6.24743 7.0448V12.3901H8.60089V6.67676C8.93187 6.22107 9.61213 5.69529 10.4395 5.69529C11.3956 5.69529 11.7633 6.25608 11.7633 7.0448L11.7634 12.3901H14.1167ZM20.5336 12.6004C17.6102 12.6004 15.8451 10.5674 15.8451 8.14891C15.8451 5.74785 17.6101 3.71492 20.5336 3.71492C23.4753 3.71492 25.2405 5.74794 25.2405 8.14891C25.2405 10.5674 23.4754 12.6004 20.5336 12.6004ZM20.5336 10.6201C21.986 10.6201 22.8135 9.48086 22.8135 8.14891C22.8135 6.8345 21.9861 5.69529 20.5336 5.69529C19.081 5.69529 18.2721 6.8345 18.2721 8.14891C18.2721 9.48086 19.0811 10.6201 20.5336 10.6201ZM35.2977 12.3901V6.41383C35.2977 4.76639 34.36 3.71483 32.4111 3.71483C30.9586 3.71483 29.8738 4.38081 29.3038 5.02923V3.92522H26.9687V12.3901H29.3038V6.69431C29.6899 6.18608 30.407 5.69529 31.3263 5.69529C32.3191 5.69529 32.9627 6.09843 32.9627 7.27264V12.3901H35.2977ZM41.7329 12.6004C38.8095 12.6004 37.0444 10.5674 37.0444 8.14891C37.0444 5.74785 38.8094 3.71492 41.7329 3.71492C44.6746 3.71492 46.4398 5.74794 46.4398 8.14891C46.4398 10.5674 44.6747 12.6004 41.7329 12.6004ZM41.7329 10.6201C43.1853 10.6201 44.0128 9.48086 44.0128 8.14891C44.0128 6.8345 43.1854 5.69529 41.7329 5.69529C40.2803 5.69529 39.4714 6.8345 39.4714 8.14891C39.4714 9.48086 40.2804 10.6201 41.7329 10.6201ZM50.5031 9.6736C50.8892 10.2169 51.7533 10.62 52.5071 10.62C53.8678 10.62 54.7686 9.63851 54.7686 8.16636C54.7686 6.69421 53.8678 5.6952 52.5071 5.6952C51.7533 5.6952 50.8892 6.11579 50.5031 6.67666V9.6736ZM50.5031 12.3901H48.168V0.700439H50.5031V5.01177C51.2017 4.15305 52.1946 3.71483 53.2426 3.71483C55.5041 3.71483 57.1773 5.39727 57.1773 8.16636C57.1773 10.988 55.4858 12.6003 53.2426 12.6003C52.1762 12.6003 51.2017 12.1447 50.5031 11.3034V12.3901ZM66.6094 12.3901H64.2744V11.5139C63.6677 12.1974 62.6196 12.6004 61.4613 12.6004C60.0455 12.6004 58.3725 11.6891 58.3725 9.79634C58.3725 7.81596 60.0456 7.06234 61.4613 7.06234C62.638 7.06234 63.686 7.43038 64.2744 8.09635V6.95715C64.2744 6.09843 63.5022 5.53756 62.3255 5.53756C61.3694 5.53756 60.4869 5.87059 59.733 6.53656L58.8504 5.04687C59.9352 4.1355 61.3325 3.71492 62.7299 3.71492C64.7524 3.71492 66.6093 4.48609 66.6093 6.92215L66.6094 12.3901ZM62.399 11.0932C63.1528 11.0932 63.8883 10.8478 64.2744 10.3571V9.30557C63.8883 8.81488 63.1528 8.56949 62.399 8.56949C61.4797 8.56949 60.7258 9.02517 60.7258 9.84889C60.7258 10.6375 61.4796 11.0932 62.399 11.0932ZM77.255 12.3901V6.41383C77.255 4.76639 76.3173 3.71483 74.3684 3.71483C72.9159 3.71483 71.8311 4.38081 71.2611 5.02923V3.92522H68.9261V12.3901H71.2611V6.69431C71.6472 6.18608 72.3643 5.69529 73.2836 5.69529C74.2764 5.69529 74.92 6.09843 74.92 7.27264V12.3901H77.255ZM88.25 12.3901L84.628 7.76332L88.1397 3.92522H85.2714L81.9067 7.69322V0.700439H79.5717V12.3901H81.9067V10.2169L82.9731 9.13037L85.3266 12.3901H88.25Z" fill="#333333"/>
</svg>
