<svg width="80" height="27" viewBox="0 0 80 27" fill="none" xmlns="http://www.w3.org/2000/svg">
<path d="M9.64005 0.700104C11.5244 0.700104 12.1165 1.96429 12.6133 3.2265C12.822 3.76249 17.7187 16.3053 17.866 16.6818C17.9052 16.7868 17.8787 16.9592 17.706 17.0216C17.5323 17.083 14.9881 18.0084 14.8472 18.0579C14.7063 18.1084 14.5485 18.0351 14.4976 17.9034C14.4447 17.7736 13.3886 15.0391 13.27 14.734H6.01222C5.89782 15.0391 4.82906 17.7795 4.7814 17.9034C4.73268 18.0292 4.58121 18.1144 4.4308 18.0579C4.28039 18.0024 1.7266 17.0771 1.57407 17.0216C1.4279 16.9681 1.36117 16.8126 1.41201 16.6818C1.59208 16.2122 6.41472 3.87048 6.66046 3.2265C7.13923 1.98311 7.75146 0.700104 9.64005 0.700104ZM1.02434 23.1434C0.87181 23.1434 0.75 23.2623 0.75 23.4069V26.3385C0.75 26.4832 0.87181 26.6001 1.02434 26.6001H18.2484C18.4041 26.6001 18.5259 26.4832 18.5259 26.3385V23.4069C18.5259 23.2623 18.4041 23.1434 18.2484 23.1434H1.02434ZM9.62311 4.79583L7.16995 11.6864H12.1165L9.65488 4.79583H9.62311ZM46.4343 16.0943C46.0731 16.2082 45.8347 16.2359 45.5509 16.2359C44.9641 16.2359 44.6389 16.019 44.6389 15.4562C44.6389 14.8697 45.052 14.6735 45.8633 14.6735C46.0614 14.6735 46.2563 14.7003 46.3474 14.73V15.1501C46.3474 15.6029 46.3739 15.9001 46.4343 16.0943ZM48.5199 16.766C48.0866 16.1507 47.9733 15.7881 47.9733 15.0124V13.4371C47.9733 12.589 47.8674 12.2829 47.628 11.9738C47.2943 11.5359 46.7383 11.3456 45.7161 11.3456C44.9927 11.3456 44.2904 11.4189 43.6104 11.5814L43.8561 12.701C44.3158 12.6405 44.7978 12.589 45.1378 12.589C46.2235 12.589 46.3474 12.7356 46.3474 13.4975V13.7819C46.1059 13.7214 45.8347 13.6778 45.5201 13.6778C43.8858 13.6778 43.0225 14.4259 43.0225 15.6643C43.0225 16.8254 43.9451 17.4585 45.0689 17.4585C45.4884 17.4585 45.9269 17.3862 46.2743 17.2534C46.484 17.1682 46.5751 17.1177 46.8463 16.9532C47.0094 17.1752 47.3367 17.402 47.4702 17.4446L48.5199 16.766ZM64.6868 16.0943C64.3235 16.2082 64.0894 16.2359 63.8034 16.2359C63.2145 16.2359 62.885 16.019 62.885 15.4562C62.885 14.8697 63.3034 14.6735 64.1169 14.6735C64.315 14.6735 64.5109 14.7003 64.5999 14.73V15.1501C64.5999 15.6029 64.6253 15.9001 64.6868 16.0943ZM66.7745 16.766C66.3381 16.1507 66.2269 15.7881 66.2269 15.0124V13.4371C66.2269 12.589 66.1188 12.2829 65.8773 11.9738C65.5479 11.5359 64.9908 11.3456 63.9654 11.3456C63.2431 11.3456 62.5366 11.4189 61.8565 11.5814L62.0991 12.701C62.5599 12.6405 63.0429 12.589 63.3924 12.589C64.4718 12.589 64.5999 12.7356 64.5999 13.4975V13.7819C64.3584 13.7214 64.0894 13.6778 63.7684 13.6778C62.1319 13.6778 61.2655 14.4259 61.2655 15.6643C61.2655 16.8254 62.1902 17.4585 63.3193 17.4585C63.7441 17.4585 64.1784 17.3862 64.5226 17.2534C64.7355 17.1682 64.8234 17.1177 65.0946 16.9532C65.2598 17.1752 65.5871 17.402 65.7216 17.4446L66.7745 16.766ZM79.5 17.3267C79.5 17.3267 78.6039 15.5404 78.3846 15.1342C78.1378 14.6765 77.9091 14.3605 77.4049 14.2465V14.2208C77.7428 14.1603 78.0118 13.9691 78.3063 13.3846C78.5848 12.8149 78.6674 12.6921 78.8316 12.5563C78.9926 12.4216 79.2129 12.4701 79.2129 12.4701L79.2956 11.417C79.0615 11.3872 78.802 11.3863 78.534 11.4001C78.0891 11.4249 77.8593 11.5448 77.64 11.7508C77.4684 11.9084 77.3519 12.1442 77.2078 12.4146C77.0553 12.7099 76.9346 12.9477 76.7757 13.2479C76.6179 13.556 76.5437 13.6947 76.119 13.6947H75.8425V9.02928H74.206V17.3267H75.8425V14.941L76.066 14.9371C76.5352 14.9371 76.6179 15.047 76.8657 15.5097C77.1559 16.0616 77.712 17.3267 77.712 17.3267H79.5ZM33.3984 17.3267H35.287L32.4303 9.16798C32.1295 9.07386 31.7577 9.01541 31.3605 9.01541C30.9272 9.01541 30.7726 9.06891 30.4336 9.16798L27.4106 17.3267H29.223C29.223 17.3267 29.4676 16.6114 29.7557 15.7247H32.8868C33.1664 16.6104 33.3984 17.3267 33.3984 17.3267ZM30.2154 14.3565C30.2154 14.3565 30.7387 12.7188 30.8203 12.4642C31.0279 11.8043 31.3435 10.7561 31.3435 10.7561H31.3954C31.3954 10.7561 31.6878 11.842 31.8784 12.4523C31.9505 12.695 32.4504 14.3565 32.4504 14.3565H30.2154ZM51.3077 13.4232C50.7305 13.4232 50.2612 13.8641 50.2612 14.4041C50.2612 14.948 50.7305 15.3859 51.3077 15.3859C51.8861 15.3859 52.3532 14.948 52.3532 14.4041C52.3532 13.8641 51.8861 13.4232 51.3077 13.4232ZM37.5294 9.02928H35.8886V17.3258H37.5294V9.02928ZM70.1269 12.6643C71.0336 12.6821 71.1459 12.8575 71.1459 13.5689V17.3267H72.7718V13.4371C72.7718 12.589 72.6659 12.2829 72.4244 11.9738C72.0907 11.5359 71.4351 11.3456 70.3261 11.3456C69.2287 11.3456 68.5296 11.4546 67.6304 11.7053V17.3267H69.2732V12.7356C69.7043 12.6772 69.7806 12.6643 70.1269 12.6643ZM41.5873 8.88166C40.5619 8.88166 40.0037 9.07188 39.6754 9.5088C39.4339 9.8189 39.3269 10.132 39.3269 10.982V11.7053H38.5123V12.9457H39.3269V17.3267H40.9538L40.9496 12.9457H42.5713V11.7053H40.9496L40.9538 11.0405C40.9538 10.2796 41.0778 10.132 42.1645 10.132C42.2821 10.132 42.4145 10.1379 42.5554 10.1478L42.8117 8.95596C42.4103 8.90643 41.9993 8.88166 41.5873 8.88166ZM54.6411 8.95894C55.1993 8.92822 56.4471 8.88463 57.2298 8.88463C57.3728 8.88463 57.5211 8.88562 57.6694 8.89255C59.2085 8.89255 60.0908 9.94076 60.0908 11.1713C60.0908 12.0084 59.6809 12.5642 58.7202 12.8952C59.8504 13.129 60.4425 13.9543 60.4425 14.9638C60.4425 15.7049 60.219 16.2934 59.8091 16.6947C59.2773 17.1841 58.4723 17.4585 57.4004 17.4585C56.4471 17.4585 55.2502 17.4308 54.6411 17.3971V8.95894ZM57.2298 10.3182C56.9587 10.3182 56.6229 10.3232 56.2903 10.3341V12.3265H57.2309C57.6038 12.3265 57.9035 12.2294 58.1079 12.0421C58.3028 11.8658 58.4045 11.6161 58.4045 11.3199C58.4045 10.6828 58.0359 10.3222 57.3506 10.3182H57.2298ZM57.2637 16.0279H57.3347C58.1895 16.0279 58.7128 15.6029 58.7191 14.7469C58.7106 14.4397 58.5846 14.1564 58.359 13.9513C58.1122 13.7195 57.7626 13.5986 57.3527 13.5986H56.2903V16.019C56.5901 16.0249 56.9206 16.0259 57.2637 16.0279Z" fill="#333333"/>
</svg>
